<svg xmlns="http://www.w3.org/2000/svg" width="512" height="640" viewBox="0 0 512 640" fill="none">
  <defs>
    <linearGradient id="gold" x1="0" y1="0" x2="1" y2="1">
      <stop offset="0%" stop-color="#F6E6A8"/>
      <stop offset="35%" stop-color="#D4B35A"/>
      <stop offset="70%" stop-color="#A16E25"/>
      <stop offset="100%" stop-color="#F3D785"/>
    </linearGradient>
    <linearGradient id="bronze" x1="0" y1="0" x2="1" y2="1">
      <stop offset="0%" stop-color="#E6B28B"/>
      <stop offset="40%" stop-color="#B46D3F"/>
      <stop offset="100%" stop-color="#6E3D1A"/>
    </linearGradient>
    <linearGradient id="silver" x1="0" y1="0" x2="1" y2="1">
      <stop offset="0%" stop-color="#FAFCFD"/>
      <stop offset="40%" stop-color="#BBC4CC"/>
      <stop offset="100%" stop-color="#7E8A93"/>
    </linearGradient>
    <linearGradient id="platinum" x1="0" y1="0" x2="1" y2="1">
      <stop offset="0%" stop-color="#F8FBFF"/>
      <stop offset="50%" stop-color="#D6E0E9"/>
      <stop offset="100%" stop-color="#9EAFBF"/>
    </linearGradient>
    <linearGradient id="onyx" x1="0" y1="0" x2="1" y2="1">
      <stop offset="0%" stop-color="#2A2F33"/>
      <stop offset="50%" stop-color="#111417"/>
      <stop offset="100%" stop-color="#41464D"/>
    </linearGradient>
    <filter id="shadow" x="-30%" y="-30%" width="160%" height="160%">
      <feDropShadow dx="0" dy="10" stdDeviation="12" flood-color="#122015" flood-opacity="0.20"/>
    </filter>
    <clipPath id="circleClip"><circle cx="256" cy="335" r="148"/></clipPath>
    <clipPath id="hexClip"><path d="M256 115 L382 188 V332 L256 405 L130 332 V188 Z"/></clipPath>
  </defs>

  <g filter="url(#shadow)">
    <path d="M256 95 L396 176 V340 L256 421 L116 340 V176 Z" fill="url(#bronze)"/>
    <path d="M256 112 L380 184 V332 L256 404 L132 332 V184 Z" fill="#EFE6D1" fill-opacity="0.30"/>
    <path d="M256 115 L382 188 V332 L256 405 L130 332 V188 Z" fill="#5E432D"/>
    <g clip-path="url(#hexClip)">
      
    <path d="M120 360 L200 250 L245 295 L305 220 L392 360 Z" fill="#E8E0CF" fill-opacity="0.85"/>
    <path d="M150 360 L223 275 L260 315 L334 238 L360 272 L392 360 Z" fill="#17352C" fill-opacity="0.35"/>
    <path d="M70 360 L118 305 L152 335 L185 292 L214 360 Z" fill="#E8E0CF" fill-opacity="0.45"/>
    <path d="M320 360 L360 300 L396 332 L436 280 L474 360 Z" fill="#E8E0CF" fill-opacity="0.35"/>
    <path d="M108 360 C150 318, 200 300, 256 298 C318 296, 370 320, 404 360" stroke="#FAF5E8" stroke-opacity="0.18" stroke-width="3" fill="none"/>
    
      <path d="M132 354 l12 -24 l-8 0 l11 -22 l-8 0 l13 -26 l13 26 l-8 0 l11 22 l-8 0 l12 24 z" fill="#10261C" fill-opacity="0.75"/>
<path d="M160 354 l12 -24 l-8 0 l11 -22 l-8 0 l13 -26 l13 26 l-8 0 l11 22 l-8 0 l12 24 z" fill="#10261C" fill-opacity="0.75"/>
<path d="M350 354 l12 -24 l-8 0 l11 -22 l-8 0 l13 -26 l13 26 l-8 0 l11 22 l-8 0 l12 24 z" fill="#10261C" fill-opacity="0.75"/>
<path d="M380 354 l12 -24 l-8 0 l11 -22 l-8 0 l13 -26 l13 26 l-8 0 l11 22 l-8 0 l12 24 z" fill="#10261C" fill-opacity="0.75"/>
      
    <path d="M160 320 q18 -54 38 -86 q24 -40 54 -42 q17 -2 30 14 q8 10 8 32 v54 q0 12 12 18 q22 10 28 22 q4 8 4 20 q0 22 -15 35 q-16 14 -42 14 h-94 q-46 0 -58 -20 q-6 -10 -6 -22 q0 -17 11 -28 q12 -12 30 -11 z" fill="#7A4C29" stroke="#F0C99D" stroke-width="4"/>
    <path d="M198 230 l54 0" stroke="#EFD9B7" stroke-width="4"/>
    <path d="M206 254 l48 0" stroke="#EFD9B7" stroke-width="4"/>
    <path d="M180 336 q26 -18 56 -8 q30 10 78 2" stroke="#43220F" stroke-width="8" fill="none" stroke-linecap="round"/>
    <path d="M122 370 q26 -8 64 -8 h106 q20 0 27 8 q7 8 7 18 q0 10 -6 17 q-10 11 -36 11 h-124 q-28 0 -41 -8 q-11 -7 -11 -19 q0 -13 14 -19 z" fill="#26211F"/>
    <path d="M176 241 l20 16 M176 266 l20 16 M176 291 l20 16 M236 240 l-22 16 M236 266 l-22 16 M236 292 l-22 16" stroke="#B72B2F" stroke-width="6" stroke-linecap="round"/>
    
    </g>
    <path d="M168 382 H344 L332 437 H180 Z" fill="#9A2E2E" stroke="url(#gold)" stroke-width="4"/>
    <text x="256" y="420" text-anchor="middle" font-family="Arial, Helvetica, sans-serif" font-size="36" font-weight="900" letter-spacing="4" fill="#F5EDDB">BETA</text>
  </g>
</svg>
