<svg xmlns="http://www.w3.org/2000/svg" width="1024" height="1024" viewBox="0 0 1024 1024" fill="none">
  <defs>
    <linearGradient id="gold" x1="120" y1="100" x2="904" y2="924" gradientUnits="userSpaceOnUse">
      <stop offset="0" stop-color="#F6E3A8"/>
      <stop offset="0.35" stop-color="#D1A64A"/>
      <stop offset="0.7" stop-color="#8F6026"/>
      <stop offset="1" stop-color="#F3D07A"/>
    </linearGradient>
    <linearGradient id="silver" x1="120" y1="100" x2="904" y2="924" gradientUnits="userSpaceOnUse">
      <stop offset="0" stop-color="#F5F7FB"/>
      <stop offset="0.35" stop-color="#C8D0D8"/>
      <stop offset="0.7" stop-color="#838E98"/>
      <stop offset="1" stop-color="#F0F3F8"/>
    </linearGradient>
    <linearGradient id="bronze" x1="120" y1="100" x2="904" y2="924" gradientUnits="userSpaceOnUse">
      <stop offset="0" stop-color="#F1C09B"/>
      <stop offset="0.35" stop-color="#B97345"/>
      <stop offset="0.7" stop-color="#764320"/>
      <stop offset="1" stop-color="#E4B087"/>
    </linearGradient>
    <filter id="shadow" x="0" y="0" width="1024" height="1024" filterUnits="userSpaceOnUse">
      <feDropShadow dx="0" dy="16" stdDeviation="20" flood-color="#10150F" flood-opacity="0.22"/>
    </filter>
    <clipPath id="hexClip"><path d="M512 94 L816 270 V622 L512 798 L208 622 V270 Z"/></clipPath>
  </defs>

  <rect width="1024" height="1024" fill="#F6F0E4"/>
  <g filter="url(#shadow)">
    <path d="M512 72 L842 262 V640 L512 830 L182 640 V262 Z" fill="url(#silver)"/>
    <path d="M512 92 L820 270 V628 L512 806 L204 628 V270 Z" fill="#EEE5D6" fill-opacity="0.25"/>
    <path d="M512 94 L816 270 V622 L512 798 L208 622 V270 Z" fill="#13324A"/>
    <g clip-path="url(#hexClip)">

      <path d="M512 138 L530 184 L576 202 L530 220 L512 266 L494 220 L448 202 L494 184 Z" fill="#EAF0FC"/>
      <path d="M282 214 C372 170, 448 154, 512 154 C582 154, 656 170, 742 214" stroke="#E8D3A8" stroke-opacity="0.9" stroke-width="6" fill="none"/>
    
      <circle cx="332" cy="220" r="26" fill="#E9EFFD"/>
      <path d="M248 600 L512 356 L746 600 Z" fill="#DDD2BD" stroke="#F1E6D4" stroke-width="8"/>
      <path d="M512 356 L644 600 H380 Z" fill="#B7A48A" opacity="0.5"/>
      <path d="M512 356 L512 600" stroke="#E0D6C7" stroke-width="8"/>
      <path d="M454 600 L512 442 L570 600" fill="#15191E"/>
      <path d="M256 622 H770" stroke="#695842" stroke-width="8"/>
      <path d="M702 570 l24 52" stroke="#918067" stroke-width="6"/><path d="M724 570 l20 52" stroke="#918067" stroke-width="6"/>
      <rect x="618" y="518" width="52" height="82" rx="12" fill="#242C30" stroke="#D6B16B" stroke-width="6"/>
      <path d="M644 502 q14 -26 14 -34 q0 8 14 34" stroke="#D6B16B" stroke-width="6" fill="none" stroke-linecap="round"/>
      <path d="M632 534 h24 l12 20 v22 l-24 24 l-24 -24 v-22 z" fill="#F7E4A1"/>
      <path d="M644 546 q14 16 0 30 q-14 -16 0 -30 z" fill="#E4B44C"/>
      <path d="M272 612 l26 -46 l-18 0 l24 -42 l-16 0 l28 -54 l28 54 l-16 0 l24 42 l-18 0 l26 46 z" fill="#113325"/>
      <path d="M714 612 l26 -46 l-18 0 l24 -42 l-16 0 l28 -54 l28 54 l-16 0 l24 42 l-18 0 l26 46 z" fill="#113325"/>
      <path d="M392 342 L520 250 L650 342" stroke="#C0D1EC" stroke-width="8" fill="none"/>
      <path d="M370 290 L482 160 L578 260 L634 196 L708 278" stroke="#DCE7FA" stroke-width="10" fill="none"/>
    
    </g>
    <path d="M320 646 H704 L678 738 H346 Z" fill="url(#silver)"/>
    <path d="M336 660 H688 L666 724 H358 Z" fill="#1B3D5E"/>
    <path d="M458 748 l54 -60 l54 60 h-32 l-22 -24 l-22 24 z" fill="#E5C170"/><path d="M482 748 l30 -34 l30 34 h-18 l-12 -12 l-12 12 z" fill="#C7953D"/>
  </g>
</svg>
