<svg xmlns="http://www.w3.org/2000/svg" width="512" height="640" viewBox="0 0 512 640" fill="none">
  <defs>
    <linearGradient id="gold" x1="0" y1="0" x2="1" y2="1">
      <stop offset="0%" stop-color="#F6E6A8"/>
      <stop offset="35%" stop-color="#D4B35A"/>
      <stop offset="70%" stop-color="#A16E25"/>
      <stop offset="100%" stop-color="#F3D785"/>
    </linearGradient>
    <linearGradient id="bronze" x1="0" y1="0" x2="1" y2="1">
      <stop offset="0%" stop-color="#E6B28B"/>
      <stop offset="40%" stop-color="#B46D3F"/>
      <stop offset="100%" stop-color="#6E3D1A"/>
    </linearGradient>
    <linearGradient id="silver" x1="0" y1="0" x2="1" y2="1">
      <stop offset="0%" stop-color="#FAFCFD"/>
      <stop offset="40%" stop-color="#BBC4CC"/>
      <stop offset="100%" stop-color="#7E8A93"/>
    </linearGradient>
    <linearGradient id="platinum" x1="0" y1="0" x2="1" y2="1">
      <stop offset="0%" stop-color="#F8FBFF"/>
      <stop offset="50%" stop-color="#D6E0E9"/>
      <stop offset="100%" stop-color="#9EAFBF"/>
    </linearGradient>
    <linearGradient id="onyx" x1="0" y1="0" x2="1" y2="1">
      <stop offset="0%" stop-color="#2A2F33"/>
      <stop offset="50%" stop-color="#111417"/>
      <stop offset="100%" stop-color="#41464D"/>
    </linearGradient>
    <filter id="shadow" x="-30%" y="-30%" width="160%" height="160%">
      <feDropShadow dx="0" dy="10" stdDeviation="12" flood-color="#122015" flood-opacity="0.20"/>
    </filter>
    <clipPath id="circleClip"><circle cx="256" cy="335" r="148"/></clipPath>
    <clipPath id="hexClip"><path d="M256 115 L382 188 V332 L256 405 L130 332 V188 Z"/></clipPath>
  </defs>

  <g filter="url(#shadow)">
    <rect x="208" y="46" width="96" height="148" rx="18" fill="#101418" stroke="url(#silver)" stroke-width="6"/>
    <path d="M228 62 H284" stroke="#F7ECD0" stroke-opacity="0.14" stroke-width="3"/>
    <path d="M228 82 H284" stroke="#F7ECD0" stroke-opacity="0.10" stroke-width="3"/>
    <path d="M256 136 l18 22 h-36 z" fill="url(#silver)"/>
    <circle cx="256" cy="332" r="172" fill="#111417"/>
    <circle cx="256" cy="332" r="164" fill="url(#silver)" fill-opacity="0.55"/>
    <circle cx="256" cy="332" r="150" fill="#1A2328"/>
    <g clip-path="url(#circleClip)">
      
    <circle cx="256" cy="286" r="88" fill="#EFE6D0" opacity="0.92"/>
    <circle cx="256" cy="286" r="74" stroke="#C9A654" stroke-width="6" fill="none"/>
    <text x="256" y="194" text-anchor="middle" font-family="Arial" font-size="28" font-weight="900" fill="#F4E8C8">N</text>
    <path d="M256 214 L284 278 L256 342 L228 278 Z" fill="#22453A" stroke="#E2C171" stroke-width="5"/>
    <path d="M256 214 L270 278 L256 342 Z" fill="#F2E8D1"/>
    <circle cx="256" cy="286" r="14" fill="#C79C47"/>
    <path d="M256 184 V202 M256 354 V372 M162 278 H180 M332 278 H350" stroke="#DFC48B" stroke-width="4"/>
    
    </g>
    <path d="M164 508 h184 l-12 28 h-160 z" fill="url(#silver)"/>
    <text x="256" y="531" text-anchor="middle" font-family="Arial, Helvetica, sans-serif" font-size="26" font-weight="800" letter-spacing="3" fill="#101418">PRATA</text>
  </g>
</svg>
