<svg xmlns="http://www.w3.org/2000/svg" width="512" height="640" viewBox="0 0 512 640" fill="none">
  <defs>
    <linearGradient id="gold" x1="0" y1="0" x2="1" y2="1">
      <stop offset="0%" stop-color="#F6E6A8"/>
      <stop offset="35%" stop-color="#D4B35A"/>
      <stop offset="70%" stop-color="#A16E25"/>
      <stop offset="100%" stop-color="#F3D785"/>
    </linearGradient>
    <linearGradient id="bronze" x1="0" y1="0" x2="1" y2="1">
      <stop offset="0%" stop-color="#E6B28B"/>
      <stop offset="40%" stop-color="#B46D3F"/>
      <stop offset="100%" stop-color="#6E3D1A"/>
    </linearGradient>
    <linearGradient id="silver" x1="0" y1="0" x2="1" y2="1">
      <stop offset="0%" stop-color="#FAFCFD"/>
      <stop offset="40%" stop-color="#BBC4CC"/>
      <stop offset="100%" stop-color="#7E8A93"/>
    </linearGradient>
    <linearGradient id="platinum" x1="0" y1="0" x2="1" y2="1">
      <stop offset="0%" stop-color="#F8FBFF"/>
      <stop offset="50%" stop-color="#D6E0E9"/>
      <stop offset="100%" stop-color="#9EAFBF"/>
    </linearGradient>
    <linearGradient id="onyx" x1="0" y1="0" x2="1" y2="1">
      <stop offset="0%" stop-color="#2A2F33"/>
      <stop offset="50%" stop-color="#111417"/>
      <stop offset="100%" stop-color="#41464D"/>
    </linearGradient>
    <filter id="shadow" x="-30%" y="-30%" width="160%" height="160%">
      <feDropShadow dx="0" dy="10" stdDeviation="12" flood-color="#122015" flood-opacity="0.20"/>
    </filter>
    <clipPath id="circleClip"><circle cx="256" cy="335" r="148"/></clipPath>
    <clipPath id="hexClip"><path d="M256 115 L382 188 V332 L256 405 L130 332 V188 Z"/></clipPath>
  </defs>

  <g filter="url(#shadow)">
    <path d="M256 95 L396 176 V340 L256 421 L116 340 V176 Z" fill="url(#gold)"/>
    <path d="M256 112 L380 184 V332 L256 404 L132 332 V184 Z" fill="#EFE6D1" fill-opacity="0.30"/>
    <path d="M256 115 L382 188 V332 L256 405 L130 332 V188 Z" fill="#33513A"/>
    <g clip-path="url(#hexClip)">
      
    <path d="M120 360 L200 250 L245 295 L305 220 L392 360 Z" fill="#E8E0CF" fill-opacity="0.85"/>
    <path d="M150 360 L223 275 L260 315 L334 238 L360 272 L392 360 Z" fill="#17352C" fill-opacity="0.35"/>
    <path d="M70 360 L118 305 L152 335 L185 292 L214 360 Z" fill="#E8E0CF" fill-opacity="0.45"/>
    <path d="M320 360 L360 300 L396 332 L436 280 L474 360 Z" fill="#E8E0CF" fill-opacity="0.35"/>
    <path d="M108 360 C150 318, 200 300, 256 298 C318 296, 370 320, 404 360" stroke="#FAF5E8" stroke-opacity="0.18" stroke-width="3" fill="none"/>
    
      <path d="M132 354 l12 -24 l-8 0 l11 -22 l-8 0 l13 -26 l13 26 l-8 0 l11 22 l-8 0 l12 24 z" fill="#10261C" fill-opacity="0.75"/>
<path d="M160 354 l12 -24 l-8 0 l11 -22 l-8 0 l13 -26 l13 26 l-8 0 l11 22 l-8 0 l12 24 z" fill="#10261C" fill-opacity="0.75"/>
<path d="M350 354 l12 -24 l-8 0 l11 -22 l-8 0 l13 -26 l13 26 l-8 0 l11 22 l-8 0 l12 24 z" fill="#10261C" fill-opacity="0.75"/>
<path d="M380 354 l12 -24 l-8 0 l11 -22 l-8 0 l13 -26 l13 26 l-8 0 l11 22 l-8 0 l12 24 z" fill="#10261C" fill-opacity="0.75"/>
      
    <circle cx="256" cy="278" r="88" fill="#EFE6D0" opacity="0.92"/>
    <circle cx="256" cy="278" r="74" stroke="#C9A654" stroke-width="6" fill="none"/>
    <text x="256" y="186" text-anchor="middle" font-family="Arial" font-size="28" font-weight="900" fill="#F4E8C8">N</text>
    <path d="M256 214 L284 278 L256 342 L228 278 Z" fill="#22453A" stroke="#E2C171" stroke-width="5"/>
    <path d="M256 214 L270 278 L256 342 Z" fill="#F2E8D1"/>
    <circle cx="256" cy="278" r="14" fill="#C79C47"/>
    <path d="M256 184 V202 M256 354 V372 M162 278 H180 M332 278 H350" stroke="#DFC48B" stroke-width="4"/>
    
    </g>
    <path d="M168 382 H344 L332 437 H180 Z" fill="#4B6C34" stroke="url(#gold)" stroke-width="4"/>
    <text x="256" y="420" text-anchor="middle" font-family="Arial, Helvetica, sans-serif" font-size="36" font-weight="900" letter-spacing="4" fill="#F5EDDB">BETA</text>
  </g>
</svg>
