<svg xmlns="http://www.w3.org/2000/svg" width="1024" height="1024" viewBox="0 0 1024 1024" fill="none">
  <defs>
    <linearGradient id="gold" x1="120" y1="100" x2="904" y2="924" gradientUnits="userSpaceOnUse">
      <stop offset="0" stop-color="#F6E3A8"/>
      <stop offset="0.35" stop-color="#D1A64A"/>
      <stop offset="0.7" stop-color="#8F6026"/>
      <stop offset="1" stop-color="#F3D07A"/>
    </linearGradient>
    <linearGradient id="silver" x1="120" y1="100" x2="904" y2="924" gradientUnits="userSpaceOnUse">
      <stop offset="0" stop-color="#F5F7FB"/>
      <stop offset="0.35" stop-color="#C8D0D8"/>
      <stop offset="0.7" stop-color="#838E98"/>
      <stop offset="1" stop-color="#F0F3F8"/>
    </linearGradient>
    <linearGradient id="bronze" x1="120" y1="100" x2="904" y2="924" gradientUnits="userSpaceOnUse">
      <stop offset="0" stop-color="#F1C09B"/>
      <stop offset="0.35" stop-color="#B97345"/>
      <stop offset="0.7" stop-color="#764320"/>
      <stop offset="1" stop-color="#E4B087"/>
    </linearGradient>
    <filter id="shadow" x="0" y="0" width="1024" height="1024" filterUnits="userSpaceOnUse">
      <feDropShadow dx="0" dy="16" stdDeviation="20" flood-color="#10150F" flood-opacity="0.22"/>
    </filter>
    <clipPath id="hexClip"><path d="M512 94 L816 270 V622 L512 798 L208 622 V270 Z"/></clipPath>
  </defs>

  <rect width="1024" height="1024" fill="#F6F0E4"/>
  <g filter="url(#shadow)">
    <path d="M512 72 L842 262 V640 L512 830 L182 640 V262 Z" fill="url(#gold)"/>
    <path d="M512 92 L820 270 V628 L512 806 L204 628 V270 Z" fill="#EEE5D6" fill-opacity="0.25"/>
    <path d="M512 94 L816 270 V622 L512 798 L208 622 V270 Z" fill="#16372F"/>
    <g clip-path="url(#hexClip)">

      <path d="M512 138 L530 184 L576 202 L530 220 L512 266 L494 220 L448 202 L494 184 Z" fill="#E5D08A"/>
      <path d="M282 214 C372 170, 448 154, 512 154 C582 154, 656 170, 742 214" stroke="#E8D3A8" stroke-opacity="0.9" stroke-width="6" fill="none"/>
    
      <circle cx="334" cy="198" r="24" fill="#F1DE9B"/>
      <path d="M514 274 q30 -54 30 -86" stroke="#D3B26A" stroke-width="12" fill="none" stroke-linecap="round"/>
      <rect x="434" y="280" width="180" height="250" rx="28" fill="#2B3E35" stroke="#B9883F" stroke-width="10"/>
      <rect x="460" y="230" width="128" height="86" rx="26" fill="#B5823D" stroke="#E5C27C" stroke-width="8"/>
      <path d="M470 212 q42 -46 42 -64 q0 20 42 64" stroke="#D8BC7E" stroke-width="10" fill="none" stroke-linecap="round"/>
      <path d="M450 330 H598" stroke="#D7B774" stroke-width="10"/>
      <path d="M458 360 l132 124 M590 360 l-132 124" stroke="#C79D4D" stroke-width="8"/>
      <path d="M486 344 h76 l24 38 v82 l-62 62 l-62 -62 v-82 z" fill="#F2E2AF"/>
      <path d="M524 374 c32 30 42 68 28 106 c-12 32 -34 52 -56 52 c-18 0 -32 -10 -40 -24 c-22 -38 0 -92 36 -134 c-4 26 4 42 16 52 c6 -18 10 -34 16 -52 z" fill="#E8B44A"/>
      <path d="M254 612 l26 -46 l-18 0 l24 -42 l-16 0 l28 -54 l28 54 l-16 0 l24 42 l-18 0 l26 46 z" fill="#123023"/>
      <path d="M724 612 l26 -46 l-18 0 l24 -42 l-16 0 l28 -54 l28 54 l-16 0 l24 42 l-18 0 l26 46 z" fill="#123023"/>
      <path d="M656 580 L744 500 L792 580" fill="#725033" stroke="#D2AE63" stroke-width="6"/>
    
    </g>
    <path d="M320 646 H704 L678 738 H346 Z" fill="url(#gold)"/>
    <path d="M336 660 H688 L666 724 H358 Z" fill="#254334"/>
    <path d="M512 682 l40 54 h-22 l16 22 h-18 v24 h-32 v-24 h-18 l16 -22 h-22 z" fill="#DDB760"/>
  </g>
</svg>
