<svg xmlns="http://www.w3.org/2000/svg" width="512" height="640" viewBox="0 0 512 640" fill="none">
  <defs>
    <linearGradient id="gold" x1="0" y1="0" x2="1" y2="1">
      <stop offset="0%" stop-color="#F6E6A8"/>
      <stop offset="35%" stop-color="#D4B35A"/>
      <stop offset="70%" stop-color="#A16E25"/>
      <stop offset="100%" stop-color="#F3D785"/>
    </linearGradient>
    <linearGradient id="bronze" x1="0" y1="0" x2="1" y2="1">
      <stop offset="0%" stop-color="#E6B28B"/>
      <stop offset="40%" stop-color="#B46D3F"/>
      <stop offset="100%" stop-color="#6E3D1A"/>
    </linearGradient>
    <linearGradient id="silver" x1="0" y1="0" x2="1" y2="1">
      <stop offset="0%" stop-color="#FAFCFD"/>
      <stop offset="40%" stop-color="#BBC4CC"/>
      <stop offset="100%" stop-color="#7E8A93"/>
    </linearGradient>
    <linearGradient id="platinum" x1="0" y1="0" x2="1" y2="1">
      <stop offset="0%" stop-color="#F8FBFF"/>
      <stop offset="50%" stop-color="#D6E0E9"/>
      <stop offset="100%" stop-color="#9EAFBF"/>
    </linearGradient>
    <linearGradient id="onyx" x1="0" y1="0" x2="1" y2="1">
      <stop offset="0%" stop-color="#2A2F33"/>
      <stop offset="50%" stop-color="#111417"/>
      <stop offset="100%" stop-color="#41464D"/>
    </linearGradient>
    <filter id="shadow" x="-30%" y="-30%" width="160%" height="160%">
      <feDropShadow dx="0" dy="10" stdDeviation="12" flood-color="#122015" flood-opacity="0.20"/>
    </filter>
    <clipPath id="circleClip"><circle cx="256" cy="335" r="148"/></clipPath>
    <clipPath id="hexClip"><path d="M256 115 L382 188 V332 L256 405 L130 332 V188 Z"/></clipPath>
  </defs>

  <g filter="url(#shadow)">
    <rect x="208" y="46" width="96" height="148" rx="18" fill="#101418" stroke="url(#gold)" stroke-width="6"/>
    <path d="M228 62 H284" stroke="#F7ECD0" stroke-opacity="0.14" stroke-width="3"/>
    <path d="M228 82 H284" stroke="#F7ECD0" stroke-opacity="0.10" stroke-width="3"/>
    <path d="M256 136 l18 22 h-36 z" fill="url(#gold)"/>
    <circle cx="256" cy="332" r="172" fill="#111417"/>
    <circle cx="256" cy="332" r="164" fill="url(#gold)" fill-opacity="0.55"/>
    <circle cx="256" cy="332" r="150" fill="#0F1215"/>
    <g clip-path="url(#circleClip)">
      
    <circle cx="256" cy="272" r="86" stroke="#D4B35A" stroke-width="6" fill="none"/>
    <ellipse cx="256" cy="272" rx="52" ry="86" stroke="#D4B35A" stroke-width="4" fill="none"/>
    <ellipse cx="256" cy="272" rx="86" ry="28" stroke="#D4B35A" stroke-width="4" fill="none"/>
    <path d="M170 272 H342 M180 230 H332 M180 314 H332" stroke="#D4B35A" stroke-width="4"/>
    <path d="M334 192 l42 12 l-22 12 l-12 26 l-12 -8 l8 -24 l-24 -14 z" fill="#F0E4C1"/>
    
    </g>
    <path d="M164 508 h184 l-12 28 h-160 z" fill="url(#gold)"/>
    <text x="256" y="531" text-anchor="middle" font-family="Arial, Helvetica, sans-serif" font-size="26" font-weight="800" letter-spacing="3" fill="#101418">ONYX</text>
  </g>
</svg>
