<svg xmlns="http://www.w3.org/2000/svg" width="1024" height="1024" viewBox="0 0 1024 1024" fill="none">
  <defs>
    <linearGradient id="gold" x1="120" y1="100" x2="904" y2="924" gradientUnits="userSpaceOnUse">
      <stop offset="0" stop-color="#F6E3A8"/>
      <stop offset="0.35" stop-color="#D1A64A"/>
      <stop offset="0.7" stop-color="#8F6026"/>
      <stop offset="1" stop-color="#F3D07A"/>
    </linearGradient>
    <linearGradient id="silver" x1="120" y1="100" x2="904" y2="924" gradientUnits="userSpaceOnUse">
      <stop offset="0" stop-color="#F5F7FB"/>
      <stop offset="0.35" stop-color="#C8D0D8"/>
      <stop offset="0.7" stop-color="#838E98"/>
      <stop offset="1" stop-color="#F0F3F8"/>
    </linearGradient>
    <linearGradient id="bronze" x1="120" y1="100" x2="904" y2="924" gradientUnits="userSpaceOnUse">
      <stop offset="0" stop-color="#F1C09B"/>
      <stop offset="0.35" stop-color="#B97345"/>
      <stop offset="0.7" stop-color="#764320"/>
      <stop offset="1" stop-color="#E4B087"/>
    </linearGradient>
    <filter id="shadow" x="0" y="0" width="1024" height="1024" filterUnits="userSpaceOnUse">
      <feDropShadow dx="0" dy="16" stdDeviation="20" flood-color="#10150F" flood-opacity="0.22"/>
    </filter>
    <clipPath id="hexClip"><path d="M512 94 L816 270 V622 L512 798 L208 622 V270 Z"/></clipPath>
  </defs>

  <rect width="1024" height="1024" fill="#F6F0E4"/>
  <g filter="url(#shadow)">
    <path d="M512 72 L842 262 V640 L512 830 L182 640 V262 Z" fill="url(#silver)"/>
    <path d="M512 92 L820 270 V628 L512 806 L204 628 V270 Z" fill="#EEE5D6" fill-opacity="0.25"/>
    <path d="M512 94 L816 270 V622 L512 798 L208 622 V270 Z" fill="#112A45"/>
    <g clip-path="url(#hexClip)">

      <path d="M512 138 L530 184 L576 202 L530 220 L512 266 L494 220 L448 202 L494 184 Z" fill="#E6EDF8"/>
      <path d="M282 214 C372 170, 448 154, 512 154 C582 154, 656 170, 742 214" stroke="#E8D3A8" stroke-opacity="0.9" stroke-width="6" fill="none"/>
    
      <path d="M334 370 L494 334 L692 364 L682 574 L522 604 L338 576 Z" fill="#EEE4D1" stroke="#C9B79A" stroke-width="8"/>
      <path d="M394 356 L416 586 M508 340 L522 604 M622 352 L626 586" stroke="#D0C1A9" stroke-width="6"/>
      <path d="M344 510 C388 484, 416 448, 460 460 C512 474, 540 404, 598 416 C640 426, 648 394, 676 384" stroke="#1F3648" stroke-width="10" fill="none" stroke-dasharray="12 14" stroke-linecap="round"/>
      <circle cx="384" cy="482" r="18" fill="#EFE7D7" stroke="#8898A8" stroke-width="8"/>
      <circle cx="514" cy="454" r="18" fill="#EFE7D7" stroke="#8898A8" stroke-width="8"/>
      <circle cx="628" cy="430" r="18" fill="#EFE7D7" stroke="#8898A8" stroke-width="8"/>
      <path d="M618 338 c18 24 28 36 28 52 c0 22 -16 38 -36 38 c-20 0 -36 -16 -36 -38 c0 -16 10 -28 44 -52 z" fill="#213D5A" stroke="#E5ECEF" stroke-width="8"/>
      <path d="M348 418 c46 -10 60 12 96 16" stroke="#B7AA90" stroke-width="4"/><path d="M560 518 c52 -8 74 12 98 10" stroke="#B7AA90" stroke-width="4"/>
      <path d="M274 612 l26 -46 l-18 0 l24 -42 l-16 0 l28 -54 l28 54 l-16 0 l24 42 l-18 0 l26 46 z" fill="#12263A"/>
      <path d="M736 612 l26 -46 l-18 0 l24 -42 l-16 0 l28 -54 l28 54 l-16 0 l24 42 l-18 0 l26 46 z" fill="#12263A"/>
    
    </g>
    <path d="M320 646 H704 L678 738 H346 Z" fill="url(#silver)"/>
    <path d="M336 660 H688 L666 724 H358 Z" fill="#1B3656"/>
    <circle cx="470" cy="744" r="10" fill="#E6D7B0"/><circle cx="512" cy="724" r="10" fill="#E6D7B0"/><circle cx="560" cy="756" r="10" fill="#E6D7B0"/><path d="M470 744 C482 730, 492 730, 512 724 C530 720, 546 738, 560 756" stroke="#E6D7B0" stroke-width="8" stroke-dasharray="12 12" fill="none"/>
  </g>
</svg>
