<svg xmlns="http://www.w3.org/2000/svg" width="1024" height="1024" viewBox="0 0 1024 1024" fill="none">
  <defs>
    <linearGradient id="gold" x1="120" y1="100" x2="904" y2="924" gradientUnits="userSpaceOnUse">
      <stop offset="0" stop-color="#F6E3A8"/>
      <stop offset="0.35" stop-color="#D1A64A"/>
      <stop offset="0.7" stop-color="#8F6026"/>
      <stop offset="1" stop-color="#F3D07A"/>
    </linearGradient>
    <linearGradient id="silver" x1="120" y1="100" x2="904" y2="924" gradientUnits="userSpaceOnUse">
      <stop offset="0" stop-color="#F5F7FB"/>
      <stop offset="0.35" stop-color="#C8D0D8"/>
      <stop offset="0.7" stop-color="#838E98"/>
      <stop offset="1" stop-color="#F0F3F8"/>
    </linearGradient>
    <linearGradient id="bronze" x1="120" y1="100" x2="904" y2="924" gradientUnits="userSpaceOnUse">
      <stop offset="0" stop-color="#F1C09B"/>
      <stop offset="0.35" stop-color="#B97345"/>
      <stop offset="0.7" stop-color="#764320"/>
      <stop offset="1" stop-color="#E4B087"/>
    </linearGradient>
    <filter id="shadow" x="0" y="0" width="1024" height="1024" filterUnits="userSpaceOnUse">
      <feDropShadow dx="0" dy="16" stdDeviation="20" flood-color="#10150F" flood-opacity="0.22"/>
    </filter>
    <clipPath id="hexClip"><path d="M512 94 L816 270 V622 L512 798 L208 622 V270 Z"/></clipPath>
  </defs>

  <rect width="1024" height="1024" fill="#F6F0E4"/>
  <g filter="url(#shadow)">
    <path d="M512 72 L842 262 V640 L512 830 L182 640 V262 Z" fill="url(#bronze)"/>
    <path d="M512 92 L820 270 V628 L512 806 L204 628 V270 Z" fill="#EEE5D6" fill-opacity="0.25"/>
    <path d="M512 94 L816 270 V622 L512 798 L208 622 V270 Z" fill="#2A181B"/>
    <g clip-path="url(#hexClip)">

      <path d="M512 138 L530 184 L576 202 L530 220 L512 266 L494 220 L448 202 L494 184 Z" fill="#F4CA85"/>
      <path d="M282 214 C372 170, 448 154, 512 154 C582 154, 656 170, 742 214" stroke="#E8D3A8" stroke-opacity="0.9" stroke-width="6" fill="none"/>
    
      <circle cx="332" cy="190" r="22" fill="#F7DCAA"/>
      <path d="M512 300 C566 356, 606 452, 594 520 C578 602, 514 644, 448 644 C378 644, 324 596, 324 530 C324 462, 366 416, 412 372 C408 414, 424 452, 448 468 C458 428, 488 358, 512 300 z" fill="#F6B24A"/>
      <path d="M500 350 C538 392, 562 446, 550 498 C538 552, 496 590, 448 590 C406 590, 372 560, 372 516 C372 466, 402 430, 436 396 C436 428, 448 446, 466 458 C474 424, 486 392, 500 350 z" fill="#FFD06D"/>
      <path d="M484 398 C504 424, 514 454, 510 486 C504 522, 480 548, 448 548 C416 548, 394 526, 394 498 C394 468, 412 446, 430 430 C432 454, 440 468, 450 476 C460 452, 470 426, 484 398 z" fill="#FFF3C7"/>
      <circle cx="448" cy="620" r="16" fill="#6C5542"/><circle cx="486" cy="612" r="18" fill="#6C5542"/><circle cx="524" cy="624" r="16" fill="#6C5542"/><circle cx="560" cy="612" r="18" fill="#6C5542"/><circle cx="408" cy="612" r="18" fill="#6C5542"/>
      <path d="M368 604 l96 -84" stroke="#8A5528" stroke-width="20" stroke-linecap="round"/>
      <path d="M402 614 l98 -94" stroke="#9A5F2C" stroke-width="22" stroke-linecap="round"/>
      <path d="M548 618 l-98 -96" stroke="#8A5528" stroke-width="20" stroke-linecap="round"/>
      <path d="M584 604 l-96 -84" stroke="#9A5F2C" stroke-width="22" stroke-linecap="round"/>
      <path d="M290 604 h64" stroke="#5A4332" stroke-width="18" stroke-linecap="round"/>
      <path d="M588 604 h64" stroke="#5A4332" stroke-width="18" stroke-linecap="round"/>
      <path d="M262 612 l28 -46 l-18 0 l22 -40 l-16 0 l26 -48 l26 48 l-16 0 l22 40 l-18 0 l28 46 z" fill="#12161A"/>
      <path d="M718 612 l28 -46 l-18 0 l22 -40 l-16 0 l26 -48 l26 48 l-16 0 l22 40 l-18 0 l28 46 z" fill="#12161A"/>
      <path d="M370 318 L514 210 L650 318" stroke="#E7C48F" stroke-width="8" fill="none"/>
    
    </g>
    <path d="M320 646 H704 L678 738 H346 Z" fill="url(#bronze)"/>
    <path d="M336 660 H688 L666 724 H358 Z" fill="#5B2022"/>
    <path d="M512 684 c18 18 34 46 26 70 c-8 26 -32 44 -58 44 c-40 0 -66 -30 -66 -66 c0 -34 22 -58 44 -76 c-6 24 -2 42 10 52 c10 -22 26 -40 44 -54 z" fill="#EEB755"/>
  </g>
</svg>
