<svg xmlns="http://www.w3.org/2000/svg" width="1024" height="1024" viewBox="0 0 1024 1024" fill="none">
  <defs>
    <linearGradient id="gold" x1="120" y1="100" x2="904" y2="924" gradientUnits="userSpaceOnUse">
      <stop offset="0" stop-color="#F6E3A8"/>
      <stop offset="0.35" stop-color="#D1A64A"/>
      <stop offset="0.7" stop-color="#8F6026"/>
      <stop offset="1" stop-color="#F3D07A"/>
    </linearGradient>
    <linearGradient id="silver" x1="120" y1="100" x2="904" y2="924" gradientUnits="userSpaceOnUse">
      <stop offset="0" stop-color="#F5F7FB"/>
      <stop offset="0.35" stop-color="#C8D0D8"/>
      <stop offset="0.7" stop-color="#838E98"/>
      <stop offset="1" stop-color="#F0F3F8"/>
    </linearGradient>
    <linearGradient id="bronze" x1="120" y1="100" x2="904" y2="924" gradientUnits="userSpaceOnUse">
      <stop offset="0" stop-color="#F1C09B"/>
      <stop offset="0.35" stop-color="#B97345"/>
      <stop offset="0.7" stop-color="#764320"/>
      <stop offset="1" stop-color="#E4B087"/>
    </linearGradient>
    <filter id="shadow" x="0" y="0" width="1024" height="1024" filterUnits="userSpaceOnUse">
      <feDropShadow dx="0" dy="16" stdDeviation="20" flood-color="#10150F" flood-opacity="0.22"/>
    </filter>
    <clipPath id="hexClip"><path d="M512 94 L816 270 V622 L512 798 L208 622 V270 Z"/></clipPath>
  </defs>

  <rect width="1024" height="1024" fill="#F6F0E4"/>
  <g filter="url(#shadow)">
    <path d="M512 72 L842 262 V640 L512 830 L182 640 V262 Z" fill="url(#gold)"/>
    <path d="M512 92 L820 270 V628 L512 806 L204 628 V270 Z" fill="#EEE5D6" fill-opacity="0.25"/>
    <path d="M512 94 L816 270 V622 L512 798 L208 622 V270 Z" fill="#171C20"/>
    <g clip-path="url(#hexClip)">

      <path d="M512 138 L530 184 L576 202 L530 220 L512 266 L494 220 L448 202 L494 184 Z" fill="#F2D38D"/>
      <path d="M282 214 C372 170, 448 154, 512 154 C582 154, 656 170, 742 214" stroke="#E8D3A8" stroke-opacity="0.9" stroke-width="6" fill="none"/>
    
      <circle cx="380" cy="256" r="78" stroke="#A88A50" stroke-width="6" fill="none" opacity="0.65"/>
      <path d="M336 256 h88 M380 212 v88" stroke="#A88A50" stroke-width="6"/>
      <path d="M492 270 C492 214, 544 188, 594 188 C666 188, 708 246, 708 326 C708 398, 662 462, 600 524 C564 560, 518 614, 476 658" stroke="#7C6B46" stroke-width="28" fill="none" stroke-linecap="round"/>
      <path d="M486 270 C486 214, 538 188, 588 188 C660 188, 702 246, 702 326 C702 398, 656 462, 594 524 C558 560, 512 614, 470 658" stroke="#A9ADAF" stroke-width="18" fill="none" stroke-linecap="round"/>
      <rect x="552" y="340" width="84" height="126" rx="20" transform="rotate(24 552 340)" fill="#C39248" stroke="#E7C37E" stroke-width="8"/>
      <path d="M568 366 l42 20 M562 392 l42 20 M556 418 l42 20" stroke="#E8CC95" stroke-width="4"/>
      <path d="M470 658 L624 214" stroke="#897446" stroke-width="26" stroke-linecap="round"/>
      <path d="M474 654 L630 220" stroke="#A6A66E" stroke-width="14" stroke-linecap="round" stroke-dasharray="8 12"/>
      <path d="M618 622 l90 -218" stroke="#454A4E" stroke-width="10"/>
      <path d="M302 610 l48 -76" stroke="#6B7379" stroke-width="16"/><path d="M312 620 l110 0" stroke="#203122" stroke-width="10"/>
    
    </g>
    <path d="M320 646 H704 L678 738 H346 Z" fill="url(#gold)"/>
    <path d="M336 660 H688 L666 724 H358 Z" fill="#31412C"/>
    <path d="M458 748 l54 -60 l54 60 h-32 l-22 -24 l-22 24 z" fill="#E5C170"/><path d="M482 748 l30 -34 l30 34 h-18 l-12 -12 l-12 12 z" fill="#C7953D"/>
  </g>
</svg>
